# xmcd CD database file
#
# Track frame offsets:
#	150
#	453
#	31263
#	49031
#	74721
#	91496
#	163571
#	187356
#	199733
#
# Disc length: 3095 seconds
#
# Revision: 0
# Processed by: cddbd v1.5.2PL0 Copyright (c) Steve Scherf et al.
# Submitted via: CDex 1.70beta2
#
DISCID=790c1509
DTITLE=Tribal Tech - Thick
DYEAR=1999
DGENRE=Jazz
TTITLE0=Sheik Of Encino
TTITLE1=Party At Kinsey's
TTITLE2=Jalapeno
TTITLE3=Clinic Troll
TTITLE4=Thick
TTITLE5=You May Remember Me
TTITLE6=Slick
TTITLE7=Somewhat Later
TTITLE8=What Has He Had?
EXTD=YEAR: 1999
EXTT0=
EXTT1=
EXTT2=
EXTT3=
EXTT4=
EXTT5=
EXTT6=
EXTT7=
EXTT8=
PLAYORDER=
